<?xml version="1.0" standalone="no"?>
<!DOCTYPE svg PUBLIC "-//W3C//DTD SVG 20010904//EN"
 "http://www.w3.org/TR/2001/REC-SVG-20010904/DTD/svg10.dtd">
<svg version="1.0" xmlns="http://www.w3.org/2000/svg"
 width="70.000000pt" height="70.000000pt" viewBox="0 0 70.000000 70.000000"
 preserveAspectRatio="xMidYMid meet">

<g transform="translate(0.000000,70.000000) scale(0.100000,-0.100000)"
fill="#000000" stroke="none">
<path d="M310 658 c-34 -10 -35 -12 -35 -59 0 -43 3 -49 20 -48 11 0 14 3 8 6
-7 2 -13 20 -13 39 0 29 5 36 35 48 19 8 35 17 35 20 0 7 -4 6 -50 -6z"/>
<path d="M375 608 c0 -52 2 -58 20 -57 11 0 14 3 8 6 -19 7 -17 83 1 83 8 0
17 -6 19 -12 4 -10 6 -10 6 0 1 8 -8 16 -19 19 -11 3 -18 9 -15 12 2 4 -1 8
-8 8 -8 0 -12 -20 -12 -59z"/>
<path d="M158 633 c7 -3 16 -2 19 1 4 3 -2 6 -13 5 -11 0 -14 -3 -6 -6z"/>
<path d="M528 633 c6 -2 18 -2 25 0 6 3 1 5 -13 5 -14 0 -19 -2 -12 -5z"/>
<path d="M574 610 c0 -13 4 -16 10 -10 7 7 7 13 0 20 -6 6 -10 3 -10 -10z"/>
<path d="M145 604 c-10 -8 -14 -14 -9 -14 6 0 15 5 21 11 21 21 50 -22 47 -72
-2 -40 -1 -42 12 -24 14 18 14 18 14 -4 0 -26 -23 -72 -58 -119 -14 -18 -22
-35 -20 -38 10 -9 76 100 87 144 7 26 18 42 27 42 13 0 15 -21 12 -154 -2 -85
0 -152 3 -150 4 2 10 -3 13 -12 17 -43 -61 -60 -107 -24 -30 24 -49 82 -40
119 3 14 2 22 -3 18 -4 -4 -11 -42 -14 -85 l-5 -77 -24 25 c-18 19 -21 21 -13
5 16 -32 60 -75 75 -75 12 0 13 8 6 37 -4 21 -6 39 -5 41 9 8 67 -72 62 -85
-5 -12 -1 -14 14 -9 67 20 62 22 56 -18 l-6 -36 64 0 c97 0 92 -19 -6 -23
l-83 -3 94 -2 c89 -2 93 -1 79 16 -8 9 -20 31 -26 48 -9 29 -9 31 11 27 17 -3
16 -1 -6 12 -33 19 -33 22 8 27 26 3 30 0 30 -22 1 -21 5 -24 25 -22 14 2 27
8 28 13 2 5 7 7 11 4 5 -2 7 8 6 23 -3 43 -4 44 -21 28 -18 -19 -30 -20 -73
-5 -25 9 -31 16 -28 30 3 11 1 17 -4 13 -5 -3 -9 -12 -9 -20 0 -9 -11 -14 -30
-14 -25 0 -30 -4 -30 -23 0 -13 5 -28 12 -35 9 -9 8 -12 -4 -12 -9 0 -20 5
-23 10 -3 6 -14 10 -24 10 -10 0 -24 7 -31 15 -10 12 -10 15 2 15 8 0 23 9 34
21 15 16 16 24 6 39 -17 28 -17 306 1 313 6 3 -12 4 -40 2 -52 -4 -74 9 -30
18 l22 4 -22 8 c-12 4 -24 13 -27 20 -9 25 -40 34 -61 19z m249 -499 c4 -10
-1 -15 -15 -15 -17 0 -18 2 -7 15 16 18 15 18 22 0z"/>
<path d="M200 616 c0 -2 8 -10 18 -17 15 -13 16 -12 3 4 -13 16 -21 21 -21 13z"/>
<path d="M519 603 c-13 -17 -13 -17 4 -4 16 13 20 13 29 0 8 -12 9 -12 6 0 -6
22 -23 24 -39 4z"/>
<path d="M460 565 c-7 -9 -8 -15 -2 -15 5 0 12 7 16 15 3 8 4 15 2 15 -2 0 -9
-7 -16 -15z"/>
<path d="M490 563 c0 -4 5 -15 10 -23 8 -13 10 -13 10 2 0 9 -4 20 -10 23 -5
3 -10 3 -10 -2z"/>
<path d="M338 393 c2 -112 0 -148 -10 -154 -10 -7 -9 -9 5 -9 15 0 17 14 17
155 0 85 -3 155 -7 155 -5 0 -7 -66 -5 -147z"/>
<path d="M369 531 c6 -4 12 -63 14 -156 l3 -150 2 152 c1 110 5 153 15 156 6
2 -1 4 -17 4 -15 0 -23 -3 -17 -6z"/>
<path d="M420 532 c0 -6 9 -8 19 -5 14 3 21 -1 24 -16 4 -19 5 -19 3 1 -1 16
-8 24 -23 26 -13 2 -23 -1 -23 -6z"/>
<path d="M495 495 c4 -11 9 -33 11 -50 l5 -30 -16 28 c-8 15 -18 27 -21 27 -7
0 14 -37 53 -94 34 -49 36 -56 34 -91 -1 -19 0 -19 7 -1 8 17 9 16 25 -7 9
-15 17 -37 18 -49 0 -23 0 -23 10 2 11 27 4 90 -10 90 -12 0 -42 47 -47 73 -2
12 -10 27 -17 32 -8 6 -24 28 -36 50 -12 22 -19 31 -16 20z"/>
<path d="M164 439 c-19 -22 -19 -22 4 -8 12 8 22 17 22 21 0 12 -6 9 -26 -13z"/>
<path d="M117 382 c-25 -26 -47 -71 -47 -94 0 -6 3 -8 7 -4 8 8 9 13 12 41 0
8 15 28 32 46 17 17 29 33 26 35 -2 2 -15 -9 -30 -24z"/>
<path d="M580 370 c6 -11 16 -20 22 -20 6 0 3 9 -7 20 -10 11 -20 20 -22 20
-2 0 1 -9 7 -20z"/>
<path d="M81 234 c0 -11 3 -14 6 -6 3 7 2 16 -1 19 -3 4 -6 -2 -5 -13z"/>
<path d="M569 153 c-13 -16 -12 -17 4 -4 16 13 21 21 13 21 -2 0 -10 -8 -17
-17z"/>
</g>
</svg>
